<svg xmlns="http://www.w3.org/2000/svg" viewBox="0 0 64 64"  xmlns:v="https://vecta.io/nano"><g fill-rule="evenodd"><path d="M36.9 45.08l-1.4 8.42 6.6-5.42 3.9-6.76V56a1.981 1.981 0 0 1-2 2H8a1.981 1.981 0 0 1-2-2V18h40v11.32z" fill="#fff"/><path d="M46,12a2,2,0,0,0-2-2H8a2,2,0,0,0-2,2v6H46Z" fill="#f47f55"/><path d="M56.1 23.84l-14 24.24-5.2-3 14-24.24 5.2 3z" fill="#eaea58"/><path d="M42.1 48.08l-6.6 5.42 1.4-8.42 5.2 3z" fill="#fae6b8"/><path d="M58.598 19.5a3 3 0 0 0-5.196-3l-2.5 4.33 5.196 3 2.5-4.33z" fill="#ef5b4f"/></g><path d="M46.12 9.88A2.997 2.997 0 0 0 44 9h-3V7a3 3 0 0 0-6 0v2h-6V7a3 3 0 0 0-6 0v2h-6V7a3 3 0 0 0-6 0v2H8a3.005 3.005 0 0 0-3 3v44a3.005 3.005 0 0 0 3 3h36a3.005 3.005 0 0 0 3-3v-6.68a1 1 0 0 0-2 0V56a1.025 1.025 0 0 1-1 1H8a1.025 1.025 0 0 1-1-1V19h38v2.32a1 1 0 1 0 2 0V12a2.997 2.997 0 0 0-.88-2.12zM37 7a.938.938 0 0 1 .3-.7A1.028 1.028 0 0 1 39 7v2h-2zM25 7a.938.938 0 0 1 .3-.7A1.028 1.028 0 0 1 27 7v2h-2zM13 7a.938.938 0 0 1 .3-.7A1.028 1.028 0 0 1 15 7v2h-2zM7 17v-5a1.025 1.025 0 0 1 1-1h7v1a.99.99 0 0 1-1 1 1 1 0 0 0 0 2 2.996 2.996 0 0 0 3-3v-1h10v1a.99.99 0 0 1-1 1 1 1 0 0 0 0 2 2.996 2.996 0 0 0 3-3v-1h10v1a.99.99 0 0 1-1 1 1 1 0 0 0 0 2 2.996 2.996 0 0 0 3-3v-1h3a1.025 1.025 0 0 1 1 1v5zm52.86-.04a4 4 0 0 0-4.9-2.82A4.031 4.031 0 0 0 52.54 16l-2.5 4.34L36.1 44.48c-.02.04-.04.06-.06.1a1.004 1.004 0 0 0-.1.26.121.121 0 0 0-.02.08l-.02.16-1.38 8.26a.995.995 0 0 0 .48 1.04 1.066 1.066 0 0 0 1.14-.1l6.56-5.4.04-.02a.926.926 0 0 0 .26-.36L59.46 20a3.937 3.937 0 0 0 .4-3.04zM36.92 51.04l.74-4.38 2.68 1.56zm4.82-4.32l-3.48-2 13-22.52 3.48 2zm16-27.72l-2 3.46-3.48-2 2-3.46a2.052 2.052 0 0 1 1.22-.94 2.013 2.013 0 0 1 1.52.2 2.051 2.051 0 0 1 .94 1.22A2.303 2.303 0 0 1 58 18a1.965 1.965 0 0 1-.26 1zM17 26a.99.99 0 0 1-1 1h-2a1 1 0 0 1 0-2h2a.99.99 0 0 1 1 1zm15.76 18a1.003 1.003 0 0 1-1 1H14a1 1 0 0 1 0-2h17.76a1.003 1.003 0 0 1 1 1zm3.46-6a1.003 1.003 0 0 1-1 1H14a1 1 0 0 1 0-2h21.22a1.003 1.003 0 0 1 1 1zM19 26a.99.99 0 0 1 1-1h18a1 1 0 0 1 0 2H20a.99.99 0 0 1-1-1zm20 6a.99.99 0 0 1-1 1H14a1 1 0 0 1 0-2h24a.99.99 0 0 1 1 1z"/></svg>